<?xml version="1.0" encoding="utf-8"?>
<!-- Generator: Adobe Illustrator 24.0.1, SVG Export Plug-In . SVG Version: 6.00 Build 0)  -->
<svg version="1.1" id="Layer_1" xmlns="http://www.w3.org/2000/svg" xmlns:xlink="http://www.w3.org/1999/xlink" x="0px" y="0px"
	 viewBox="0 0 100 100" style="enable-background:new 0 0 100 100;" xml:space="preserve">
<style type="text/css">
	.st0{fill:#FFFFFF;}
</style>
<title>Iconos</title>
<g>
	<path class="st0" d="M39.4,60.1c-0.8,0-1.6-0.3-2.2-0.8c-0.7-0.7-1-1.6-1-2.6V45.7h-8.8c-0.4,0.1-0.7,0-1-0.2c-0.7-0.5-1-1.5-1-3.2
		V5.1l0.1-0.2c0.1-0.2,0.9-1.4,2.1-1.4c0.8,0.1,1.4,0.7,1.7,1.4v0.1l0.5,5v30.5h6.2V29.9c-0.1-0.7,0.1-1.4,0.5-2
		c0.6-0.7,1.5-1,2.4-0.9h29c0.6,0,1.1,0.1,1.6,0.5c0.9,0.9,1.3,2.2,1.2,3.4v25.8c0.2,0.7,0,1.5-0.4,2.2c-0.7,0.8-1.7,1.2-2.8,1.1
		H39.4z M27.2,44.4h10.4v12.2c0,0.6,0.2,1.1,0.5,1.6c0.3,0.3,0.8,0.5,1.2,0.5h28.1c0.6,0.1,1.2-0.1,1.7-0.5c0.2-0.3,0.3-0.7,0.2-1.1
		V57V31c0.1-0.8-0.1-1.7-0.6-2.4c-0.1-0.1-0.3-0.2-0.5-0.2h-0.1H39c-0.4,0-0.9,0.1-1.2,0.4c-0.2,0.3-0.3,0.6-0.2,0.9V42h-9V10.2
		l-0.5-4.7c-0.2-0.4-0.4-0.5-0.5-0.6s-0.5,0.3-0.8,0.6v36.8C26.8,43.9,27.1,44.3,27.2,44.4L27.2,44.4z"/>
	<path class="st0" d="M65,54.8H42.2V32.9H65L65,54.8z M43.6,53.5h20V34.3h-20V53.5z"/>
	<polygon class="st0" points="74.6,41.7 70.1,41.7 70.1,40.3 73.2,40.3 73.2,36.2 70.1,36.2 70.1,34.8 74.6,34.8 	"/>
	<path class="st0" d="M72.1,52.3H70v-1.4h2.1v-3.5c0-0.3-0.1-0.5-0.3-0.7h-1.7v-1.4h2h0.1c0.8,0.3,1.3,1.2,1.3,2v3.9
		C73.4,51.9,72.8,52.4,72.1,52.3C72.1,52.3,72.1,52.3,72.1,52.3z"/>
	<polygon class="st0" points="47.9,96.5 41.4,96.5 41.4,88.7 42.6,87.1 42.6,70.3 41.7,69.7 41.4,59.9 42.8,59.8 43,68.9 44,69.5
		44,87.6 42.8,89.1 42.8,95.1 46.5,95.1 46.5,89.1 45.2,87.8 45.2,69.6 45.9,68.9 45.9,59.6 47.3,59.6 47.3,69.5 46.6,70.2
		46.6,87.2 47.9,88.5 	"/>
	<polygon class="st0" points="56.8,96.5 50.4,96.5 50.4,88.7 51.6,87.1 51.6,70.3 50.6,69.7 50.4,59.9 51.8,59.8 52,68.9 52.9,69.5
		52.9,87.6 51.8,89.1 51.8,95.1 55.5,95.1 55.5,89.1 54.2,87.8 54.2,69.6 54.9,68.9 54.9,59.6 56.2,59.6 56.2,69.5 55.6,70.2
		55.6,87.2 56.8,88.5 	"/>
	<polygon class="st0" points="65.9,96.5 59.4,96.5 59.4,88.7 60.6,87.1 60.6,70.3 59.7,69.7 59.4,59.9 60.8,59.8 61.1,68.9 62,69.5
		62,87.6 60.8,89.1 60.8,95.1 64.5,95.1 64.5,89.1 63.2,87.8 63.2,69.6 63.9,68.9 63.9,59.6 65.3,59.6 65.3,69.5 64.6,70.2
		64.6,87.2 65.9,88.5 	"/>
</g>
</svg>
