<?xml version="1.0" encoding="utf-8"?>
<!-- Generator: Adobe Illustrator 24.1.2, SVG Export Plug-In . SVG Version: 6.00 Build 0)  -->
<svg version="1.1" id="Layer_3" xmlns="http://www.w3.org/2000/svg" xmlns:xlink="http://www.w3.org/1999/xlink" x="0px" y="0px"
	 viewBox="0 0 99.9 100.23" style="enable-background:new 0 0 99.9 100.23;" xml:space="preserve">
<style type="text/css">
	.st0{fill:#FBB03B;}
	.st1{fill:none;stroke:#FFFFFF;stroke-width:2;stroke-miterlimit:10;}
</style>
<g>
	<path class="st0" d="M80.52,39.83c0,13.82-18.51,38.44-26.62,48.59c-1.95,2.42-5.55,2.42-7.5,0
		c-8.11-10.16-26.62-34.77-26.62-48.59c0-16.77,13.6-30.37,30.37-30.37S80.52,23.07,80.52,39.83z"/>
</g>
<g id="WIND_1_">
	<path class="st1" d="M33.57,39.21L33.57,39.21c2.54,2.83,5.95,3.23,8.76,1.03l1.31-1.03l0.05-0.04c3.92-3.08,8.6-3.06,12.51,0.04
		l0,0l1.1,0.87c2.88,2.28,6.38,1.95,9.03-0.87l0,0"/>
	<path class="st1" d="M66.42,27.79"/>
	<path class="st1" d="M33.66,26.82c2.54,2.83,5.95,3.23,8.76,1.03l1.31-1.03l0.05-0.04c3.92-3.08,8.6-3.06,12.51,0.04l0,0l1.1,0.87
		c2.88,2.28,6.38,1.95,9.03-0.87l0,0"/>
	<path class="st1" d="M33.66,51.6L33.66,51.6c2.54,2.83,5.95,3.23,8.76,1.03l1.31-1.03l0.05-0.04c3.92-3.08,8.6-3.06,12.51,0.04l0,0
		l1.1,0.87c2.88,2.28,6.38,1.95,9.03-0.87l0,0"/>
</g>
</svg>
